<svg width="192" height="192" viewBox="0 0 192 192" fill="none" xmlns="http://www.w3.org/2000/svg">
<g clip-path="url(#clip0_249_180)">
<path d="M96 192C43.0452 192 0 148.955 0 96C0 43.0452 43.0452 0 96 0C148.955 0 192 43.0452 192 96C192 148.955 148.955 192 96 192ZM96 6.19355C46.4516 6.19355 6.19355 46.4516 6.19355 96C6.19355 145.548 46.4516 185.806 96 185.806C145.548 185.806 185.806 145.548 185.806 96C185.806 46.4516 145.548 6.19355 96 6.19355Z" fill="#C3996B"/>
<path d="M178.684 96.3097C178.374 96 178.684 96 178.684 96V96.3097Z" fill="#C3996B"/>
<path d="M178.374 104.361C178.064 104.361 178.064 104.361 178.374 104.361C178.064 104.052 178.374 104.052 178.374 104.052C178.374 104.052 178.374 104.052 178.374 104.361Z" fill="#C3996B"/>
<path d="M177.135 112.413C176.825 112.103 177.135 112.103 177.135 112.103C177.135 111.794 177.444 112.103 177.135 112.413Z" fill="#C3996B"/>
<path d="M175.277 120.155C174.967 120.155 174.967 120.155 175.277 120.155C174.967 119.845 174.967 119.535 175.277 119.535C175.277 119.535 175.586 119.845 175.277 120.155Z" fill="#C3996B"/>
<path d="M172.489 127.897C172.18 127.897 172.18 127.587 172.18 127.587C172.18 127.277 172.489 127.277 172.489 127.277C172.799 127.277 172.799 127.587 172.799 127.587C173.109 127.587 172.799 127.897 172.489 127.897Z" fill="#C3996B"/>
<path d="M169.084 135.019C168.774 135.019 168.464 134.71 168.464 134.4C168.464 134.09 168.774 133.781 169.084 133.781C169.393 133.781 169.703 134.09 169.703 134.4C169.703 135.019 169.393 135.019 169.084 135.019Z" fill="#C3996B"/>
<path d="M165.057 142.142C164.747 142.142 164.438 141.832 164.438 141.523C164.438 141.213 164.747 140.903 165.057 140.903C165.367 140.903 165.676 141.213 165.676 141.523C165.986 141.832 165.676 142.142 165.057 142.142Z" fill="#C3996B"/>
<path d="M160.412 148.645C159.793 148.645 159.483 148.335 159.483 147.716C159.483 147.406 159.793 146.787 160.412 146.787C160.722 146.787 161.341 147.097 161.341 147.716C161.341 148.335 161.032 148.645 160.412 148.645Z" fill="#C3996B"/>
<path d="M155.148 154.839C154.528 154.839 154.219 154.529 154.219 153.91C154.219 153.29 154.528 152.981 155.148 152.981C155.767 152.981 156.077 153.29 156.077 153.91C156.077 154.529 155.767 154.839 155.148 154.839Z" fill="#C3996B"/>
<path d="M149.264 160.413C148.645 160.413 148.025 159.794 148.025 159.174C148.025 158.555 148.645 157.936 149.264 157.936C149.883 157.936 150.503 158.555 150.503 159.174C150.503 159.794 149.883 160.413 149.264 160.413Z" fill="#C3996B"/>
<path d="M143.071 165.368C142.451 165.368 141.832 164.748 141.832 164.129C141.832 163.51 142.451 162.89 143.071 162.89C143.69 162.89 144.309 163.51 144.309 164.129C144.309 164.748 143.69 165.368 143.071 165.368Z" fill="#C3996B"/>
<path d="M136.258 169.703C135.638 169.703 135.019 169.084 135.019 168.465C135.019 167.845 135.638 167.226 136.258 167.226C136.877 167.226 137.496 167.845 137.496 168.465C137.496 169.084 136.877 169.703 136.258 169.703Z" fill="#C3996B"/>
<path d="M129.134 173.11C128.515 173.11 127.586 172.49 127.586 171.871C127.586 171.252 128.205 170.323 129.134 170.323C129.754 170.323 130.373 170.942 130.373 171.871C130.683 172.49 130.063 173.11 129.134 173.11Z" fill="#C3996B"/>
<path d="M121.703 176.206C120.774 176.206 120.155 175.587 120.155 174.658C120.155 173.729 120.774 173.11 121.703 173.11C122.632 173.11 123.252 173.729 123.252 174.658C123.252 175.587 122.632 176.206 121.703 176.206Z" fill="#C3996B"/>
<path d="M113.96 178.065C113.031 178.065 112.412 177.445 112.412 176.516C112.412 175.587 113.031 174.968 113.96 174.968C114.89 174.968 115.509 175.587 115.509 176.516C115.509 177.445 114.89 178.065 113.96 178.065Z" fill="#C3996B"/>
<path d="M106.219 179.613C105.6 179.613 104.671 178.994 104.671 178.064C104.671 177.445 105.29 176.516 106.219 176.516C107.148 176.516 107.768 177.135 107.768 178.064C107.458 178.994 106.839 179.613 106.219 179.613Z" fill="#C3996B"/>
<path d="M98.1674 179.923C97.548 179.923 96.9287 179.303 96.9287 178.684C96.9287 178.065 97.548 177.445 98.1674 177.445C98.7868 177.445 99.4061 178.065 99.4061 178.684C99.4061 179.303 99.0964 179.923 98.1674 179.923Z" fill="#C3996B"/>
<path d="M90.1152 179.613C89.4958 179.613 88.8765 178.994 88.8765 178.374C88.8765 177.755 89.4958 177.136 90.1152 177.136C90.7346 177.136 91.3539 177.755 91.3539 178.374C91.3539 178.994 91.0442 179.613 90.1152 179.613Z" fill="#C3996B"/>
<path d="M82.373 178.684C81.7537 178.684 81.1343 178.065 81.1343 177.445C81.1343 176.826 81.7537 176.206 82.373 176.206C82.9924 176.206 83.6117 176.826 83.6117 177.445C83.6117 178.065 82.9924 178.684 82.373 178.684Z" fill="#C3996B"/>
<path d="M74.6312 176.826C74.0118 176.826 73.7021 176.516 73.7021 175.897C73.7021 175.277 74.3215 174.968 74.6312 174.968C75.2505 174.968 75.5602 175.587 75.5602 175.897C75.5602 176.516 75.2505 176.826 74.6312 176.826Z" fill="#C3996B"/>
<path d="M66.8885 174.348C66.2692 174.348 65.9595 174.039 65.9595 173.419C65.9595 172.8 66.2692 172.49 66.8885 172.49C67.5079 172.49 67.8175 172.8 67.8175 173.419C67.8175 174.039 67.5079 174.348 66.8885 174.348Z" fill="#C3996B"/>
<path d="M59.7669 170.942C59.4573 170.942 58.8379 170.632 58.8379 170.013C58.8379 169.394 59.1476 169.084 59.7669 169.084C60.0766 169.084 60.696 169.394 60.696 170.013C60.696 170.632 60.0766 170.942 59.7669 170.942Z" fill="#C3996B"/>
<path d="M52.6447 166.916C52.3351 166.916 52.0254 166.606 52.0254 166.297C52.0254 165.987 52.3351 165.677 52.6447 165.677C52.9544 165.677 53.2641 165.987 53.2641 166.297C53.5738 166.606 53.2641 166.916 52.6447 166.916Z" fill="#C3996B"/>
<path d="M46.1403 162.271C45.8307 162.271 45.521 161.961 45.521 161.652C45.521 161.342 45.8307 161.032 46.1403 161.032C46.45 161.032 46.7597 161.342 46.7597 161.652C46.7597 161.961 46.45 162.271 46.1403 162.271Z" fill="#C3996B"/>
<path d="M39.9465 157.316C39.6368 157.316 39.3271 157.006 39.3271 156.697C39.3271 156.387 39.6368 156.077 39.9465 156.077C40.2562 156.077 40.5659 156.387 40.5659 156.697C40.5659 157.006 40.2562 157.316 39.9465 157.316Z" fill="#C3996B"/>
<path d="M34.6833 151.432C34.3736 151.432 34.064 151.123 34.064 150.813C34.064 150.503 34.3736 150.194 34.6833 150.194C34.993 150.194 35.3027 150.503 35.3027 150.813C35.3027 151.123 34.6833 151.432 34.6833 151.432Z" fill="#C3996B"/>
<path d="M29.4182 145.239C29.1085 145.239 28.7988 144.929 28.7988 144.619C28.7988 144.31 29.1085 144 29.4182 144C29.7279 144 30.0375 144.31 30.0375 144.619C30.0375 144.929 29.7279 145.239 29.4182 145.239Z" fill="#C3996B"/>
<path d="M25.0837 138.426C24.774 138.426 24.4644 138.116 24.4644 137.806C24.4644 137.497 24.774 137.187 25.0837 137.187C25.3934 137.187 25.7031 137.497 25.7031 137.806C25.7031 138.426 25.3934 138.426 25.0837 138.426Z" fill="#C3996B"/>
<path d="M21.3664 131.613C21.0568 131.613 20.7471 131.303 20.7471 130.994C20.7471 130.684 21.0568 130.374 21.3664 130.374C21.6761 130.374 21.9858 130.684 21.9858 130.994C21.9858 131.303 21.6761 131.613 21.3664 131.613Z" fill="#C3996B"/>
<path d="M18.5788 124.181C18.2691 124.181 17.9595 123.871 17.9595 123.561C17.9595 123.252 18.2691 122.942 18.5788 122.942C18.8885 122.942 19.1982 123.252 19.1982 123.561C18.8885 123.871 18.8885 124.181 18.5788 124.181Z" fill="#C3996B"/>
<path d="M16.1027 116.748C15.7931 116.748 15.4834 116.439 15.4834 116.129C15.4834 115.819 15.7931 115.51 16.1027 115.51C16.4124 115.51 16.7221 115.819 16.7221 116.129C16.7221 116.439 16.4124 116.748 16.1027 116.748Z" fill="#C3996B"/>
<path d="M14.5539 109.006C14.2442 109.006 13.9346 108.697 13.9346 108.387C13.9346 108.077 14.2442 107.768 14.5539 107.768C14.8636 107.768 15.1733 108.077 15.1733 108.387C15.483 108.697 15.1733 109.006 14.5539 109.006Z" fill="#C3996B"/>
<path d="M13.9354 100.955C13.6257 100.955 13.0063 100.645 13.0063 100.026C13.0063 99.7161 13.316 99.0968 13.9354 99.0968C14.2451 99.0968 14.8644 99.4065 14.8644 100.026C14.8644 100.645 14.2451 100.955 13.9354 100.955Z" fill="#C3996B"/>
<path d="M13.9354 93.2129C13.316 93.2129 13.0063 92.9032 13.0063 92.2839C13.0063 91.6645 13.316 91.3548 13.9354 91.3548C14.5547 91.3548 14.8644 91.6645 14.8644 92.2839C14.8644 92.9032 14.5547 93.2129 13.9354 93.2129Z" fill="#C3996B"/>
<path d="M14.5535 85.471C13.9342 85.471 13.6245 85.1613 13.6245 84.542C13.6245 83.9226 13.9342 83.6129 14.5535 83.6129C15.1729 83.6129 15.4826 83.9226 15.4826 84.542C15.7922 84.8516 15.1729 85.471 14.5535 85.471Z" fill="#C3996B"/>
<path d="M16.102 77.7291C15.4826 77.7291 14.8633 77.1097 14.8633 76.4903C14.8633 75.871 15.4826 75.2516 16.102 75.2516C16.7213 75.2516 17.3407 75.871 17.3407 76.4903C17.3407 77.1097 16.7213 77.7291 16.102 77.7291Z" fill="#C3996B"/>
<path d="M18.5795 70.2968C17.9602 70.2968 17.3408 69.6774 17.3408 69.0581C17.3408 68.4387 17.9602 67.8193 18.5795 67.8193C19.1989 67.8193 19.8182 68.4387 19.8182 69.0581C19.8182 69.6774 19.1989 70.2968 18.5795 70.2968Z" fill="#C3996B"/>
<path d="M21.3666 62.8645C20.7473 62.8645 20.1279 62.2452 20.1279 61.6258C20.1279 61.0065 20.7473 60.3871 21.3666 60.3871C21.986 60.3871 22.6054 61.0065 22.6054 61.6258C22.915 62.2452 22.2957 62.8645 21.3666 62.8645Z" fill="#C3996B"/>
<path d="M25.082 55.7419C24.4626 55.7419 23.8433 55.1226 23.8433 54.5032C23.8433 53.8839 24.4626 53.2645 25.082 53.2645C25.7013 53.2645 26.3207 53.8839 26.3207 54.5032C26.6304 55.1226 26.011 55.7419 25.082 55.7419Z" fill="#C3996B"/>
<path d="M29.4195 49.2387C28.4904 49.2387 27.8711 48.6194 27.8711 47.6903C27.8711 46.7613 28.4904 46.1419 29.4195 46.1419C30.3485 46.1419 30.9679 46.7613 30.9679 47.6903C30.9679 48.6194 30.3485 49.2387 29.4195 49.2387Z" fill="#C3996B"/>
<path d="M34.6827 43.0451C33.7536 43.0451 33.1343 42.4258 33.1343 41.4968C33.1343 40.5677 33.7536 39.9484 34.6827 39.9484C35.6117 39.9484 36.2311 40.5677 36.2311 41.4968C35.9214 42.4258 35.302 43.0451 34.6827 43.0451Z" fill="#C3996B"/>
<path d="M39.9468 37.471C39.0178 37.471 38.3984 36.8516 38.3984 35.9226C38.3984 34.9936 39.0178 34.3742 39.9468 34.3742C40.8759 34.3742 41.4952 34.9936 41.4952 35.9226C41.4952 36.8516 40.8759 37.471 39.9468 37.471Z" fill="#C3996B"/>
<path d="M46.1407 32.2064C45.2116 32.2064 44.5923 31.5871 44.5923 30.6581C44.5923 29.729 45.2116 29.1097 46.1407 29.1097C47.0697 29.1097 47.6891 29.729 47.6891 30.6581C47.6891 31.5871 47.0697 32.2064 46.1407 32.2064Z" fill="#C3996B"/>
<path d="M52.6436 27.871C51.7146 27.871 51.0952 27.2516 51.0952 26.3226C51.0952 25.3935 51.7146 24.7742 52.6436 24.7742C53.5726 24.7742 54.192 25.3935 54.192 26.3226C54.192 27.2516 53.5726 27.871 52.6436 27.871Z" fill="#C3996B"/>
<path d="M59.7671 24.1548C58.8381 24.1548 58.2188 23.5355 58.2188 22.6065C58.2188 21.6774 58.8381 21.0581 59.7671 21.0581C60.6962 21.0581 61.3155 21.6774 61.3155 22.6065C61.3155 23.5355 60.6962 24.1548 59.7671 24.1548Z" fill="#C3996B"/>
<path d="M66.8892 20.7484C65.9602 20.7484 65.3408 20.129 65.3408 19.2C65.3408 18.271 65.9602 17.6516 66.8892 17.6516C67.8182 17.6516 68.4376 18.271 68.4376 19.2C68.7473 20.129 67.8182 20.7484 66.8892 20.7484Z" fill="#C3996B"/>
<path d="M74.6319 18.5806C73.7029 18.5806 73.0835 17.9613 73.0835 17.0322C73.0835 16.1032 73.7029 15.4838 74.6319 15.4838C75.5609 15.4838 76.1803 16.1032 76.1803 17.0322C76.1803 17.9613 75.5609 18.5806 74.6319 18.5806Z" fill="#C3996B"/>
<path d="M82.3726 16.7226C81.4436 16.7226 80.8242 16.1032 80.8242 15.1742C80.8242 14.2452 81.4436 13.6258 82.3726 13.6258C83.3016 13.6258 83.921 14.2452 83.921 15.1742C83.921 16.1032 83.3016 16.7226 82.3726 16.7226Z" fill="#C3996B"/>
<path d="M90.1159 15.7935C89.1869 15.7935 88.2578 15.1742 88.2578 13.9355C88.2578 13.0065 88.8772 12.3871 90.1159 12.3871C91.0449 12.3871 91.9739 13.0065 91.9739 13.9355C91.9739 15.1742 91.0449 15.7935 90.1159 15.7935Z" fill="#C3996B"/>
<path d="M98.1675 15.4839C97.2385 15.4839 96.6191 14.8645 96.6191 13.9355C96.6191 13.0065 97.2385 12.3871 98.1675 12.3871C99.0966 12.3871 99.7159 13.0065 99.7159 13.9355C100.026 14.8645 99.0966 15.4839 98.1675 15.4839Z" fill="#C3996B"/>
<path d="M106.219 16.1032C105.29 16.1032 104.671 15.4839 104.671 14.5548C104.671 13.6258 105.29 13.0064 106.219 13.0064C107.148 13.0064 107.768 13.6258 107.768 14.5548C107.768 15.4839 107.148 16.1032 106.219 16.1032Z" fill="#C3996B"/>
<path d="M113.96 17.3419C113.031 17.3419 112.412 16.7226 112.412 15.7936C112.412 14.8645 113.031 14.2452 113.96 14.2452C114.89 14.2452 115.509 14.8645 115.509 15.7936C115.509 16.7226 114.89 17.3419 113.96 17.3419Z" fill="#C3996B"/>
<path d="M121.703 19.5097C120.774 19.5097 120.155 18.8904 120.155 17.9613C120.155 17.0323 120.774 16.4129 121.703 16.4129C122.632 16.4129 123.252 17.0323 123.252 17.9613C123.252 18.8904 122.632 19.5097 121.703 19.5097Z" fill="#C3996B"/>
<path d="M129.134 22.2968C128.205 22.2968 127.586 21.6774 127.586 20.7484C127.586 19.8193 128.205 19.2 129.134 19.2C130.063 19.2 130.683 19.8193 130.683 20.7484C130.683 21.6774 130.063 22.2968 129.134 22.2968Z" fill="#C3996B"/>
<path d="M136.256 25.7032C135.327 25.7032 134.708 25.0839 134.708 24.1548C134.708 23.2258 135.327 22.6065 136.256 22.6065C137.185 22.6065 137.805 23.2258 137.805 24.1548C137.805 25.0839 137.185 25.7032 136.256 25.7032Z" fill="#C3996B"/>
<path d="M143.071 29.7291C142.451 29.7291 141.832 29.1097 141.832 28.4904C141.832 27.871 142.451 27.2516 143.071 27.2516C143.69 27.2516 144.309 27.871 144.309 28.4904C144.309 29.1097 143.69 29.7291 143.071 29.7291Z" fill="#C3996B"/>
<path d="M149.264 34.3742C148.645 34.3742 148.025 33.7548 148.025 33.1355C148.025 32.5161 148.645 31.8968 149.264 31.8968C149.883 31.8968 150.503 32.5161 150.503 33.1355C150.503 34.0645 149.883 34.3742 149.264 34.3742Z" fill="#C3996B"/>
<path d="M155.148 39.6387C154.528 39.6387 154.219 39.329 154.219 38.7097C154.219 38.0903 154.528 37.7806 155.148 37.7806C155.767 37.7806 156.077 38.0903 156.077 38.7097C156.077 39.329 155.767 39.6387 155.148 39.6387Z" fill="#C3996B"/>
<path d="M160.412 45.5226C159.793 45.5226 159.483 45.2129 159.483 44.5935C159.483 43.9742 159.793 43.6645 160.412 43.6645C161.032 43.6645 161.341 43.9742 161.341 44.5935C161.341 45.2129 161.032 45.5226 160.412 45.5226Z" fill="#C3996B"/>
<path d="M165.057 51.7161C164.747 51.7161 164.438 51.4065 164.438 51.0968C164.438 50.7871 164.747 50.4774 165.057 50.4774C165.367 50.4774 165.676 50.7871 165.676 51.0968C165.986 51.4065 165.676 51.7161 165.057 51.7161Z" fill="#C3996B"/>
<path d="M169.084 58.529C168.774 58.529 168.464 58.2194 168.464 57.9097C168.464 57.6 168.774 57.2903 169.084 57.2903C169.393 57.2903 169.703 57.6 169.703 57.9097C169.703 58.2194 169.393 58.529 169.084 58.529Z" fill="#C3996B"/>
<path d="M172.489 65.6516C172.18 65.6516 172.18 65.342 172.18 65.342C172.18 65.0323 172.489 65.0323 172.489 65.0323C172.799 65.0323 172.799 65.342 172.799 65.342C173.109 65.342 172.799 65.6516 172.489 65.6516Z" fill="#C3996B"/>
<path d="M175.277 73.0838C174.967 73.0838 174.967 73.0838 174.967 72.7742C174.967 72.4645 174.967 72.4645 175.277 72.4645C175.587 72.4645 175.587 72.4645 175.587 72.7742C175.587 73.0838 175.277 73.0838 175.277 73.0838Z" fill="#C3996B"/>
<path d="M177.135 80.8258C176.825 80.5161 177.135 80.5161 177.135 80.5161C177.135 80.2065 177.444 80.2065 177.135 80.8258Z" fill="#C3996B"/>
<path d="M178.374 88.5677C178.064 88.5677 178.064 88.5677 178.374 88.5677C178.064 88.2581 178.374 88.258 178.374 88.258C178.374 88.258 178.374 88.2581 178.374 88.5677Z" fill="#C3996B"/>
<path d="M94.761 72.1549V70.6065C81.4449 71.2258 70.9158 81.7549 69.9868 95.071H71.5352C72.4642 82.3742 82.3739 72.4645 94.761 72.1549Z" fill="#C3996B"/>
<path d="M96.9287 120.155V121.703C110.555 121.084 121.393 110.245 121.703 96.6194H120.155C119.535 109.316 109.625 119.536 96.9287 120.155Z" fill="#C3996B"/>
<path d="M119.845 94.7613H121.393C120.774 81.4452 109.935 70.9161 96.6191 70.2968V71.8452C109.316 72.4645 119.226 82.3742 119.845 94.7613Z" fill="#C3996B"/>
<path d="M71.8462 96.9291H70.2979C70.6075 110.555 81.4462 121.394 95.072 122.013V120.465C82.3753 119.536 72.1559 109.316 71.8462 96.9291Z" fill="#C3996B"/>
<path d="M96.0002 46.4517L95.3808 45.8323C88.8776 39.3291 79.8969 35.6129 70.6066 35.6129H68.7485L69.9873 34.3742C76.8002 27.5613 86.0905 23.5355 96.0002 23.5355C105.91 23.5355 114.89 27.2517 122.013 34.3742L123.252 35.6129H121.394C112.103 35.6129 103.123 39.3291 96.6195 45.8323L96.0002 46.4517ZM72.4647 34.0646C81.4453 34.3742 89.4969 38.0904 96.0002 44.2839C102.503 38.0904 110.555 34.6839 119.536 34.0646C113.032 28.1807 104.671 25.0839 96.0002 25.0839C87.3292 25.0839 78.9679 28.4904 72.4647 34.0646Z" fill="#C3996B"/>
<path d="M157.936 72.4645L156.697 71.2258C150.194 64.7226 141.213 61.0064 131.923 61.0064H131.303V60.3871C131.303 51.0968 127.587 42.1161 121.084 35.6129L119.845 34.3742H121.703C131.613 34.3742 140.594 38.0903 147.716 45.2129C154.529 52.0258 158.555 61.3161 158.555 71.2258V72.4645H157.936ZM132.542 59.4581C141.523 59.7677 149.884 62.8645 156.387 68.7484C156.077 60.0774 152.361 52.0258 146.168 45.8323C139.974 39.6387 131.923 35.9226 123.252 35.6129C129.136 42.1161 132.232 50.4774 132.542 59.4581Z" fill="#C3996B"/>
<path d="M110.863 67.8194L110.553 67.5097C109.005 66.5807 107.457 65.9613 105.598 65.342H105.289V65.0323C104.05 57.6 100.644 51.0968 95.3791 45.8323L94.7598 45.2129L95.3791 44.5936C102.192 37.7807 111.482 33.7549 121.392 33.7549H121.702L122.011 34.0646C128.824 40.8775 132.85 50.1678 132.85 60.0775V60.6968H131.611C124.179 60.6968 117.057 62.8646 111.173 67.2L110.863 67.8194ZM106.527 64.4129C108.076 65.0323 109.315 65.342 110.863 66.271C116.747 61.9355 123.869 59.7678 130.992 59.7678C130.682 50.7871 127.276 42.4258 121.082 35.9226C112.102 35.9226 103.74 39.3291 97.2371 45.8323C101.882 50.7871 105.289 57.2904 106.527 64.4129Z" fill="#C3996B"/>
<path d="M156.387 123.252V121.394C156.387 112.103 152.67 103.123 146.167 96.6194L145.548 96L146.167 95.3807C152.67 88.8775 156.387 79.8968 156.387 70.6065V68.7484L157.625 69.9871C164.438 76.8 168.464 86.0904 168.464 96C168.464 105.91 164.748 114.89 157.625 122.013L156.387 123.252ZM147.716 96C153.909 102.503 157.316 110.555 157.935 119.536C163.819 113.032 166.916 104.671 166.916 96C166.916 87.3291 163.819 78.9678 157.935 72.4646C157.316 81.4452 153.909 89.8065 147.716 96Z" fill="#C3996B"/>
<path d="M146.478 97.2387L145.858 96.6194C140.594 91.3548 134.09 87.9484 126.658 86.7097H126.349V86.4C125.729 84.8516 125.11 83.3032 124.181 81.4452L123.871 81.1355L124.181 80.8258C128.516 74.9419 130.684 67.8194 130.684 60.3871V59.7677H131.303C141.213 59.7677 150.194 63.4839 157.316 70.6065L157.626 70.9161V71.2258C157.626 81.1355 153.91 90.1161 146.787 97.2387H146.478ZM127.587 85.471C134.71 86.7097 141.213 90.1161 146.478 95.071C152.671 88.5677 156.078 80.2064 156.387 71.2258C149.884 65.0323 141.523 61.3161 132.542 61.3161C132.542 68.4387 130.065 75.5613 126.039 81.4452C126.658 82.6839 127.278 83.9226 127.587 85.471Z" fill="#C3996B"/>
<path d="M121.394 158.245H119.536L120.774 157.006C127.278 150.503 130.994 141.523 130.994 132.232V131.303H131.613C140.903 131.303 149.884 127.587 156.387 121.084L157.626 119.845V121.703C157.626 131.613 153.91 140.594 146.787 147.716C140.284 154.219 130.994 158.245 121.394 158.245ZM132.542 132.852C132.232 141.832 129.136 150.194 123.252 156.697C131.923 156.387 139.974 152.671 146.168 146.477C152.361 140.284 156.078 132.232 156.387 123.561C149.884 129.136 141.523 132.542 132.542 132.852Z" fill="#C3996B"/>
<path d="M131.612 132.852H130.993V132.232C130.993 124.8 128.825 117.677 124.489 111.794L124.18 111.484L124.489 111.174C125.418 109.626 126.038 108.077 126.657 106.219V105.91H126.967C134.399 104.671 140.902 101.265 146.167 96L146.786 95.3807L147.405 96C154.218 102.813 158.244 112.103 158.244 122.013V122.323L157.935 122.632C150.812 128.826 141.522 132.852 131.612 132.852ZM125.728 110.865C130.064 116.748 132.231 123.871 132.231 130.994C141.212 130.684 149.573 127.277 156.076 121.084C156.076 112.103 152.67 103.742 146.167 97.2387C140.902 102.194 134.399 105.6 127.276 106.839C127.276 108.077 126.657 109.626 125.728 110.865Z" fill="#C3996B"/>
<path d="M96.0002 168.465C86.0905 168.465 77.1099 164.748 69.9873 157.626L68.7485 156.387H70.6066C79.8969 156.387 88.8776 152.671 95.3808 146.168L96.0002 145.548L96.6195 146.168C103.123 152.671 112.103 156.387 121.394 156.387H123.252L122.013 157.626C114.89 164.748 105.6 168.465 96.0002 168.465ZM72.4647 157.935C78.9679 163.819 87.3292 166.916 96.0002 166.916C104.671 166.916 113.032 163.819 119.536 157.935C110.555 157.626 102.503 153.91 96.0002 147.716C89.4969 153.91 81.1356 157.626 72.4647 157.935Z" fill="#C3996B"/>
<path d="M121.702 158.245H121.392C111.482 158.245 102.502 154.529 95.3791 147.406L94.7598 146.787L95.3791 146.168C100.644 140.903 104.05 134.4 105.289 126.968V126.658H105.598C107.147 126.039 108.695 125.419 110.553 124.49L110.863 124.181L111.173 124.49C117.057 128.826 124.179 130.994 131.611 130.994H132.231V131.613C132.54 141.832 128.824 150.813 121.702 158.245ZM96.9275 146.787C103.431 152.981 111.792 156.387 120.773 156.697C126.966 150.194 130.682 141.832 130.682 132.852C123.56 132.852 116.437 130.374 110.553 126.348C109.005 126.968 107.766 127.587 106.218 128.206C105.289 135.019 101.882 141.523 96.9275 146.787Z" fill="#C3996B"/>
<path d="M72.464 158.245H70.606C60.6963 158.245 51.7157 154.529 44.5931 147.406C37.7802 140.594 33.7544 131.303 33.7544 121.394V119.535L34.9931 120.774C41.4963 127.277 50.477 130.994 59.7673 130.994H60.3866V131.613C60.3866 140.903 64.1028 149.884 70.606 156.387L72.464 158.245ZM35.6125 123.252C35.9221 131.923 39.6383 139.974 45.8318 146.168C52.0254 152.361 60.077 156.077 68.7479 156.387C62.8641 149.884 59.4576 141.523 59.4576 132.542C50.477 132.542 42.1157 129.135 35.6125 123.252Z" fill="#C3996B"/>
<path d="M70.6065 158.245H70.2968L69.9871 157.936C63.1742 151.123 59.1484 141.832 59.1484 131.923V131.303H59.7678C67.2 131.303 74.3226 129.136 80.2065 124.8L80.5162 124.49L80.8259 124.8C82.3742 125.729 83.9226 126.348 85.7807 126.968H86.0904V127.277C87.3291 134.71 90.7355 141.213 96 146.477L96.6194 147.097L96 147.716C89.4968 154.219 80.2065 158.245 70.6065 158.245ZM60.6968 132.852C61.0065 141.832 64.4129 150.194 70.6065 156.697C79.5871 156.697 87.9484 153.29 94.4516 147.097C89.4968 141.832 86.0903 135.329 84.8516 128.207C83.3032 127.587 82.0645 127.277 80.5162 126.348C74.942 130.374 68.1291 132.542 60.6968 132.852Z" fill="#C3996B"/>
<path d="M35.3035 123.252L34.0648 122.013C27.2519 115.2 23.2261 105.91 23.2261 96C23.2261 86.0904 26.9422 77.1097 34.0648 69.9871L35.3035 68.7484V70.6065C35.3035 79.8968 39.0196 88.8775 45.5228 95.3807L46.1422 96L45.5228 96.6194C39.0196 103.123 35.3035 112.103 35.3035 121.394V123.252ZM34.0648 72.4646C28.1809 78.9678 25.0841 87.3291 25.0841 96C25.0841 104.671 28.1809 113.032 34.0648 119.536C34.3745 110.555 38.0906 102.503 44.2841 96C38.0906 89.8065 34.3745 81.4452 34.0648 72.4646Z" fill="#C3996B"/>
<path d="M60.6963 132.852H60.077C50.1673 132.852 41.1866 129.135 34.0641 122.013L33.7544 121.703V121.394C33.7544 111.484 37.4705 102.503 44.5931 95.3807L45.2125 94.7613L45.8318 95.3807C51.0963 100.645 57.5996 104.052 65.0318 105.29H65.3415V105.6C65.9609 107.148 66.5802 108.697 67.5092 110.555L67.8189 110.865L67.5092 111.174C63.1738 117.058 61.006 124.181 61.006 131.613V132.852H60.6963ZM35.3028 121.084C41.806 127.277 50.1673 130.994 59.148 130.994C59.4576 123.871 61.6253 116.748 65.6512 110.865C65.0318 109.316 64.4125 108.077 63.7931 106.529C56.6705 105.29 50.1673 101.884 44.9028 96.929C39.0189 103.742 35.6125 112.103 35.3028 121.084Z" fill="#C3996B"/>
<path d="M33.7544 72.4646V70.6065C33.7544 60.6968 37.4705 51.7162 44.5931 44.5936C51.406 37.7807 60.6963 33.7549 70.606 33.7549H72.464L71.2254 34.9936C64.7221 41.4968 61.006 50.4775 61.006 59.7678V60.3871H60.3866C51.0963 60.3871 42.1157 64.1033 35.6125 70.6065L33.7544 72.4646ZM68.7479 35.6129C60.077 35.9226 52.0254 39.6387 45.8318 45.8323C39.6383 52.0258 35.9221 60.0775 35.6125 68.7484C42.1157 62.8646 50.477 59.4581 59.4576 59.4581C59.4576 50.4775 62.8641 42.1162 68.7479 35.6129Z" fill="#C3996B"/>
<path d="M80.8268 67.8193L80.5171 67.5097C74.6332 63.1742 67.5106 61.0064 60.0783 61.0064H59.459V60.3871C59.459 50.4774 63.1751 41.4968 70.2977 34.3742L70.6074 34.0645H70.917C80.8267 34.0645 89.8074 37.7806 96.93 44.9032L97.5493 45.5226L96.93 46.1419C91.6655 51.4064 88.259 57.9097 87.0203 65.3419V65.6516H86.7106C85.1622 66.2709 83.6138 66.8903 81.7557 67.8193H80.8268ZM60.6977 59.458C67.8203 59.458 74.9429 61.9355 80.8268 65.9613C82.3751 65.3419 83.6138 64.7226 85.1622 64.1032C86.4009 56.9806 89.8074 50.4774 94.7622 45.2129C88.259 39.0193 79.8977 35.6129 70.917 35.6129C64.4138 42.1161 61.0074 50.4774 60.6977 59.458Z" fill="#C3996B"/>
<path d="M126.039 107.148L126.349 105.91C127.278 102.813 127.897 99.4065 127.897 96C127.897 92.5936 127.278 89.4968 126.349 86.0904L126.039 84.8517L127.278 85.1613C135.02 86.4 141.833 89.8065 147.097 95.3807L147.716 96L147.097 96.6194C141.523 102.194 134.71 105.6 127.278 106.839L126.039 107.148ZM128.207 87.0194C129.136 90.1162 129.446 92.9033 129.446 96C129.446 99.0968 129.136 102.194 128.207 104.981C134.71 103.742 140.904 100.645 145.549 96C140.594 91.3549 134.71 88.2581 128.207 87.0194Z" fill="#C3996B"/>
<path d="M96 148.026L95.3806 147.406C89.8064 141.832 86.4 135.019 85.1613 127.587L84.8516 126.348L86.0903 126.658C92.2838 128.826 99.4064 128.826 105.6 126.658L106.839 126.348L106.529 127.587C105.29 135.329 101.884 142.142 96.3097 147.406L96 148.026ZM86.7096 128.516C87.9484 135.019 91.0451 141.213 95.6903 145.858C100.335 140.903 103.432 135.019 104.671 128.516C99.0968 130.065 92.5935 130.065 86.7096 128.516Z" fill="#C3996B"/>
<path d="M60.0783 132.852H59.459V132.232C59.459 124.49 61.9364 117.058 66.2719 110.865L66.8913 109.936L67.5106 111.174C70.6074 117.058 75.2526 122.013 81.4461 125.11L82.6848 125.729L81.7558 126.348C74.9428 130.374 67.8203 132.852 60.0783 132.852ZM66.5816 112.413C62.8654 117.987 60.6977 124.49 60.6977 130.994C67.5106 130.994 73.7042 128.826 79.2784 125.11C74.0139 122.323 69.6783 117.987 66.5816 112.413Z" fill="#C3996B"/>
<path d="M106.839 65.9613L105.6 65.6516C99.4064 63.4839 92.2838 63.4839 86.0903 65.6516L84.8516 65.9613L85.1613 64.7226C86.4 56.9807 89.8064 50.1678 95.3806 44.9033L96 44.2839L96.6193 44.9033C102.194 50.4774 105.6 57.2904 106.839 64.7226V65.9613ZM96 46.4516C91.3548 51.4065 88.2581 57.2904 87.0193 63.7936C92.9032 62.2452 99.0967 62.2452 104.981 63.7936C103.742 57.2904 100.645 51.4065 96 46.4516Z" fill="#C3996B"/>
<path d="M66.8913 82.6839L66.2719 81.7548C61.6267 75.5613 59.459 68.129 59.459 60.3871V59.7677H60.0783C67.8203 59.7677 75.2526 62.2452 81.4461 66.5806L82.3751 67.2L81.1364 67.8194C75.2525 70.9161 70.2977 75.5613 67.2009 81.7548L66.8913 82.6839ZM60.6977 61.0064C60.6977 67.8194 62.8654 74.0129 66.5816 79.5871C69.6783 74.3226 74.0139 69.6774 79.2784 66.8903C74.0139 63.1742 67.5106 61.3161 60.6977 61.0064Z" fill="#C3996B"/>
<path d="M65.9616 107.148L64.7229 106.839C56.9809 105.6 50.168 102.194 44.9035 96.6194L44.2842 96L44.9035 95.3807C50.4777 89.8065 57.2906 86.4 64.7229 85.1613L65.9616 84.8517L65.6519 86.0904C64.7229 89.1871 64.1035 92.5936 64.1035 96C64.1035 99.4065 64.7229 102.503 65.6519 105.91L65.9616 107.148ZM46.1422 96C51.0971 100.645 56.9809 103.742 63.4842 104.981C62.5551 101.884 62.2455 99.0968 62.2455 96C62.2455 92.9033 62.5551 89.8065 63.4842 87.0194C56.9809 88.2581 51.0971 91.3549 46.1422 96Z" fill="#C3996B"/>
<path d="M96.0003 129.755C77.4197 129.755 62.5552 114.581 62.5552 96.3097C62.5552 77.7291 77.7294 62.8645 96.0003 62.8645C114.581 62.8645 129.446 78.0387 129.446 96.3097C129.446 114.581 114.271 129.755 96.0003 129.755ZM96.0003 64.1032C78.3487 64.1032 64.1036 78.3484 64.1036 96C64.1036 113.652 78.3487 127.897 96.0003 127.897C113.652 127.897 127.897 113.652 127.897 96C127.897 78.3484 113.652 64.1032 96.0003 64.1032Z" fill="#C3996B"/>
</g>
<defs>
<clipPath id="clip0_249_180">
<rect width="192" height="192" fill="white"/>
</clipPath>
</defs>
</svg>
