<svg width="327" height="72" viewBox="0 0 327 72" fill="none" xmlns="http://www.w3.org/2000/svg">
<path d="M85.3 55.4917C84.7 55.3194 84.3 55.0611 84 54.8028L84.3 54.2C84.6 54.4583 85 54.7167 85.5 54.8028C86 54.975 86.5 55.0611 87.1 55.0611C87.9 55.0611 88.4 54.975 88.8 54.7167C89.2 54.4583 89.4 54.2 89.4 53.7694C89.4 53.5111 89.3 53.2528 89.1 53.0806C88.9 52.9083 88.6 52.7361 88.4 52.65C88.1 52.5639 87.7 52.4778 87.2 52.3056C86.6 52.1333 86.1 52.0472 85.7 51.875C85.3 51.7889 85 51.5306 84.7 51.2722C84.4 51.0139 84.3 50.6694 84.3 50.2389C84.3 49.8944 84.4 49.55 84.6 49.2056C84.8 48.9472 85.2 48.6889 85.6 48.5167C86 48.3444 86.6 48.2583 87.3 48.2583C87.8 48.2583 88.3 48.3444 88.7 48.4306C89.2 48.5167 89.6 48.6889 89.9 48.8611L89.6 49.4639C89.2 49.2917 88.9 49.1194 88.5 49.0333C88.1 48.9472 87.7 48.8611 87.3 48.8611C86.6 48.8611 86 48.9472 85.6 49.2056C85.2 49.4639 85 49.8083 85 50.1528C85 50.4111 85.1 50.6694 85.3 50.8417C85.5 51.0139 85.8 51.1861 86.1 51.2722C86.4 51.3583 86.8 51.4444 87.3 51.6167C87.9 51.7889 88.4 51.875 88.8 52.0472C89.2 52.1333 89.5 52.3917 89.8 52.65C90.1 52.9083 90.2 53.2528 90.2 53.6833C90.2 54.0278 90.1 54.3722 89.9 54.7167C89.7 54.975 89.3 55.2333 88.9 55.4056C88.4 55.5778 87.8 55.6639 87.2 55.6639C86.5 55.75 85.9 55.6639 85.3 55.4917Z" fill="white"/>
<path d="M94.6001 49.1194H91.6001V48.4306H98.4001V49.1194H95.4001V55.6639H94.5001V49.1194H94.6001Z" fill="white"/>
<path d="M106.4 55.6639L104.5 53.3389C104.3 53.3389 104.1 53.3389 103.8 53.3389H101.5V55.6639H100.7V48.4306H103.8C104.9 48.4306 105.7 48.6889 106.3 49.1194C106.9 49.55 107.2 50.1528 107.2 50.9278C107.2 51.5306 107 51.9611 106.7 52.3917C106.4 52.8222 105.9 53.0806 105.3 53.2528L107.4 55.75H106.4V55.6639ZM105.7 52.2194C106.1 51.875 106.4 51.4444 106.4 50.9278C106.4 50.325 106.2 49.8944 105.7 49.55C105.3 49.2056 104.6 49.1194 103.8 49.1194H101.6V52.7361H103.8C104.6 52.7361 105.3 52.5639 105.7 52.2194Z" fill="white"/>
<path d="M115.5 53.7694H110.8L109.8 55.6639H108.9L112.7 48.4306H113.6L117.4 55.6639H116.5L115.5 53.7694ZM115.1 53.1667L113.1 49.2917L111.1 53.1667H115.1Z" fill="white"/>
<path d="M120.9 49.1194H117.9V48.4306H124.7V49.1194H121.7V55.6639H120.8V49.1194H120.9Z" fill="white"/>
<path d="M132.9 55.0611V55.75H127V48.5167H132.7V49.2056H127.8V51.7889H132.1V52.4778H127.8V55.1472H132.9V55.0611Z" fill="white"/>
<path d="M141.7 52.0472H142.6V54.8028C142.2 55.0611 141.7 55.3194 141.2 55.4917C140.7 55.6639 140.1 55.75 139.5 55.75C138.7 55.75 137.9 55.5778 137.2 55.2333C136.5 54.8889 136 54.4583 135.6 53.9417C135.2 53.3389 135 52.7361 135 52.0472C135 51.3583 135.2 50.7556 135.6 50.1528C136 49.55 136.5 49.1194 137.2 48.8611C137.9 48.5167 138.6 48.3444 139.5 48.3444C140.1 48.3444 140.7 48.4306 141.3 48.6028C141.9 48.775 142.3 49.0333 142.7 49.3778L142.1 49.8944C141.4 49.2917 140.6 49.0333 139.6 49.0333C138.9 49.0333 138.3 49.1194 137.8 49.3778C137.3 49.6361 136.8 49.9806 136.5 50.4111C136.2 50.8417 136 51.3583 136 51.9611C136 52.5639 136.2 52.9944 136.5 53.5111C136.8 53.9417 137.2 54.2861 137.8 54.5444C138.3 54.8028 139 54.975 139.6 54.975C140.5 54.975 141.2 54.8028 141.8 54.4583V52.0472H141.7Z" fill="white"/>
<path d="M145.9 48.4306H146.8V55.6639H145.9V48.4306Z" fill="white"/>
<path d="M156.5 55.0611V55.75H149.6V55.2333L155.2 49.2056H149.7V48.5167H156.4V49.0333L150.8 55.0611H156.5Z" fill="white"/>
<path d="M165 55.0611V55.75H159.1V48.5167H164.9V49.2056H160V51.7889H164.3V52.4778H160V55.1472H165V55.0611Z" fill="white"/>
<path d="M172 48H172.8V57.6444H172V48Z" fill="white"/>
<path d="M181.8 55.2333C181.1 54.8889 180.6 54.4583 180.2 53.9417C179.8 53.425 179.6 52.7361 179.6 52.0472C179.6 51.3583 179.8 50.7556 180.2 50.1528C180.6 49.6361 181.1 49.1194 181.8 48.8611C182.5 48.5167 183.2 48.3444 184.1 48.3444C184.9 48.3444 185.7 48.5167 186.4 48.8611C187.1 49.2056 187.6 49.6361 188 50.1528C188.4 50.7556 188.6 51.3583 188.6 52.0472C188.6 52.7361 188.4 53.3389 188 53.9417C187.6 54.5444 187.1 54.975 186.4 55.2333C185.7 55.5778 185 55.75 184.1 55.75C183.2 55.75 182.4 55.5778 181.8 55.2333ZM185.8 54.6306C186.3 54.3722 186.8 54.0278 187.1 53.5972C187.4 53.1667 187.6 52.65 187.6 52.0472C187.6 51.4444 187.4 51.0139 187.1 50.4972C186.8 50.0667 186.4 49.7222 185.8 49.4639C185.3 49.2056 184.7 49.1194 184 49.1194C183.3 49.1194 182.7 49.2056 182.2 49.4639C181.7 49.7222 181.2 50.0667 180.9 50.4972C180.6 50.9278 180.4 51.4444 180.4 52.0472C180.4 52.65 180.6 53.1667 180.9 53.5972C181.2 54.0278 181.6 54.3722 182.2 54.6306C182.7 54.8889 183.3 55.0611 184 55.0611C184.7 55.0611 185.3 54.8889 185.8 54.6306Z" fill="white"/>
<path d="M196.9 49.1194C197.5 49.55 197.8 50.1528 197.8 50.9278C197.8 51.7028 197.5 52.3056 196.9 52.7361C196.3 53.1667 195.5 53.425 194.4 53.425H192.1V55.75H191.2V48.5167H194.3C195.5 48.4306 196.3 48.6889 196.9 49.1194ZM196.3 52.2194C196.7 51.875 197 51.4444 197 50.9278C197 50.325 196.8 49.8944 196.3 49.55C195.9 49.2056 195.2 49.1194 194.4 49.1194H192.2V52.7361H194.4C195.2 52.7361 195.8 52.5639 196.3 52.2194Z" fill="white"/>
<path d="M202 49.1194H199V48.4306H205.8V49.1194H202.8V55.6639H201.9V49.1194H202Z" fill="white"/>
<path d="M208.1 48.4306H209V55.6639H208.1V48.4306Z" fill="white"/>
<path d="M221.3 48.4306V55.6639H220.4V49.8944L217.1 54.8028H216.7L213.4 49.9806V55.75H212.5V48.5167H213.2L216.8 53.8556L220.4 48.5167H221.3V48.4306Z" fill="white"/>
<path d="M224.9 48.4306H225.8V55.6639H224.9V48.4306Z" fill="white"/>
<path d="M235.4 55.0611V55.75H228.5V55.2333L234.1 49.2056H228.6V48.5167H235.3V49.0333L229.7 55.0611H235.4Z" fill="white"/>
<path d="M243.9 55.0611V55.75H238V48.5167H243.8V49.2056H238.9V51.7889H243.2V52.4778H238.9V55.1472H243.9V55.0611Z" fill="white"/>
<path d="M250.9 48H251.7V57.6444H250.9V48Z" fill="white"/>
<path d="M259.8 55.4917C259.2 55.3194 258.8 55.0611 258.5 54.8028L258.8 54.2C259.1 54.4583 259.5 54.7167 260 54.8028C260.5 54.975 261 55.0611 261.6 55.0611C262.4 55.0611 262.9 54.975 263.3 54.7167C263.7 54.4583 263.9 54.2 263.9 53.7694C263.9 53.5111 263.8 53.2528 263.6 53.0806C263.4 52.9083 263.1 52.7361 262.8 52.65C262.5 52.5639 262.1 52.4778 261.6 52.3056C261 52.1333 260.5 52.0472 260.1 51.875C259.7 51.7889 259.4 51.5306 259.1 51.2722C258.8 51.0139 258.7 50.6694 258.7 50.2389C258.7 49.8944 258.8 49.55 259 49.2056C259.2 48.9472 259.6 48.6889 260 48.5167C260.5 48.3444 261 48.2583 261.7 48.2583C262.2 48.2583 262.7 48.3444 263.1 48.4306C263.6 48.5167 264 48.6889 264.3 48.8611L264 49.4639C263.6 49.2917 263.3 49.1194 262.9 49.0333C262.5 48.9472 262.1 48.8611 261.7 48.8611C261 48.8611 260.4 48.9472 260 49.2056C259.6 49.4639 259.4 49.8083 259.4 50.1528C259.4 50.4111 259.5 50.6694 259.7 50.8417C259.9 51.0139 260.2 51.1861 260.5 51.2722C260.8 51.3583 261.2 51.4444 261.7 51.6167C262.3 51.7889 262.8 51.875 263.2 52.0472C263.6 52.1333 263.9 52.3917 264.2 52.65C264.5 52.9083 264.6 53.2528 264.6 53.6833C264.6 54.0278 264.5 54.3722 264.3 54.7167C264.1 54.975 263.7 55.2333 263.2 55.4056C262.7 55.5778 262.1 55.6639 261.5 55.6639C261 55.75 260.4 55.6639 259.8 55.4917Z" fill="white"/>
<path d="M268.3 54.975C267.7 54.4583 267.4 53.6833 267.4 52.65V48.5167H268.3V52.65C268.3 53.5111 268.5 54.1139 269 54.5444C269.4 54.975 270.1 55.1472 270.9 55.1472C271.7 55.1472 272.4 54.975 272.8 54.5444C273.2 54.1139 273.5 53.5111 273.5 52.65V48.5167H274.4V52.65C274.4 53.6833 274.1 54.4583 273.5 54.975C272.9 55.4917 272 55.75 271 55.75C269.8 55.75 268.9 55.4917 268.3 54.975Z" fill="white"/>
<path d="M279.2 55.2333C278.5 54.8889 278 54.4583 277.6 53.9417C277.2 53.3389 277 52.7361 277 52.0472C277 51.3583 277.2 50.7556 277.6 50.1528C278 49.55 278.5 49.1194 279.2 48.8611C279.9 48.5167 280.6 48.3444 281.5 48.3444C282.1 48.3444 282.7 48.4306 283.2 48.6028C283.7 48.775 284.2 49.0333 284.5 49.3778L283.9 49.8944C283.2 49.2917 282.4 49.0333 281.4 49.0333C280.7 49.0333 280.1 49.2056 279.6 49.4639C279.1 49.7222 278.6 50.0667 278.3 50.4972C278 50.9278 277.8 51.4444 277.8 52.0472C277.8 52.65 278 53.0806 278.3 53.5972C278.6 54.0278 279 54.3722 279.6 54.6306C280.1 54.8889 280.7 55.0611 281.4 55.0611C282.4 55.0611 283.2 54.8028 283.9 54.2L284.5 54.7167C284.1 55.0611 283.7 55.3194 283.1 55.4917C282.6 55.6639 282 55.75 281.4 55.75C280.7 55.75 279.9 55.5778 279.2 55.2333Z" fill="white"/>
<path d="M288.5 55.2333C287.8 54.8889 287.3 54.4583 286.9 53.9417C286.5 53.3389 286.3 52.7361 286.3 52.0472C286.3 51.3583 286.5 50.7556 286.9 50.1528C287.3 49.55 287.8 49.1194 288.5 48.8611C289.2 48.5167 289.9 48.3444 290.8 48.3444C291.4 48.3444 292 48.4306 292.5 48.6028C293 48.775 293.5 49.0333 293.8 49.3778L293.2 49.8944C292.5 49.2917 291.7 49.0333 290.7 49.0333C290 49.0333 289.4 49.2056 288.9 49.4639C288.4 49.7222 287.9 50.0667 287.6 50.4972C287.3 50.9278 287.1 51.4444 287.1 52.0472C287.1 52.65 287.3 53.0806 287.6 53.5972C287.9 54.0278 288.3 54.3722 288.9 54.6306C289.4 54.8889 290 55.0611 290.7 55.0611C291.7 55.0611 292.5 54.8028 293.2 54.2L293.8 54.7167C293.4 55.0611 293 55.3194 292.4 55.4917C291.9 55.6639 291.3 55.75 290.7 55.75C290 55.75 289.2 55.5778 288.5 55.2333Z" fill="white"/>
<path d="M302.6 55.0611V55.75H296.7V48.5167H302.5V49.2056H297.6V51.7889H301.9V52.4778H297.6V55.1472H302.6V55.0611Z" fill="white"/>
<path d="M311.4 55.0611V55.75H305.5V48.5167H311.3V49.2056H306.4V51.7889H310.7V52.4778H306.4V55.1472H311.4V55.0611Z" fill="white"/>
<path d="M314.4 48.4306H317.8C318.7 48.4306 319.5 48.6028 320.2 48.8611C320.9 49.2056 321.4 49.6361 321.8 50.1528C322.2 50.6694 322.4 51.3583 322.4 52.0472C322.4 52.7361 322.2 53.3389 321.8 53.9417C321.4 54.4583 320.9 54.8889 320.2 55.2333C319.5 55.5778 318.7 55.6639 317.8 55.6639H314.4V48.4306ZM317.8 55.0611C318.5 55.0611 319.2 54.975 319.7 54.7167C320.3 54.4583 320.7 54.1139 321 53.6833C321.3 53.2528 321.5 52.7361 321.5 52.1333C321.5 51.5306 321.3 51.0139 321 50.5833C320.7 50.1528 320.3 49.8083 319.7 49.55C319.1 49.2917 318.5 49.2056 317.8 49.2056H315.3V55.1472H317.8V55.0611Z" fill="white"/>
<path d="M32.5 68C15.1242 68 1 53.8758 1 36.5C1 19.1242 15.1242 5 32.5 5C49.8758 5 64 19.1242 64 36.5C64 53.8758 49.8758 68 32.5 68ZM32.5 7.03226C16.2419 7.03226 3.03226 20.2419 3.03226 36.5C3.03226 52.7581 16.2419 65.9677 32.5 65.9677C48.7581 65.9677 61.9677 52.7581 61.9677 36.5C61.9677 20.2419 48.7581 7.03226 32.5 7.03226Z" fill="#C3996B"/>
<path d="M59.6306 36.6016C59.529 36.5 59.6306 36.5 59.6306 36.5V36.6016Z" fill="#C3996B"/>
<path d="M59.5288 39.2436C59.4272 39.2436 59.4272 39.2436 59.5288 39.2436C59.4272 39.1419 59.5288 39.1419 59.5288 39.1419C59.5288 39.1419 59.5288 39.1419 59.5288 39.2436Z" fill="#C3996B"/>
<path d="M59.1223 41.8855C59.0207 41.7839 59.1223 41.7839 59.1223 41.7839C59.1223 41.6823 59.2239 41.7839 59.1223 41.8855Z" fill="#C3996B"/>
<path d="M58.5127 44.4258C58.4111 44.4258 58.4111 44.4258 58.5127 44.4258C58.4111 44.3242 58.4111 44.2226 58.5127 44.2226C58.5127 44.2226 58.6143 44.3242 58.5127 44.4258Z" fill="#C3996B"/>
<path d="M57.5982 46.9661C57.4966 46.9661 57.4966 46.8645 57.4966 46.8645C57.4966 46.7629 57.5982 46.7629 57.5982 46.7629C57.6998 46.7629 57.6998 46.8645 57.6998 46.8645C57.8014 46.8645 57.6998 46.9661 57.5982 46.9661Z" fill="#C3996B"/>
<path d="M56.4806 49.3032C56.379 49.3032 56.2773 49.2016 56.2773 49.1C56.2773 48.9984 56.379 48.8968 56.4806 48.8968C56.5822 48.8968 56.6838 48.9984 56.6838 49.1C56.6838 49.3032 56.5822 49.3032 56.4806 49.3032Z" fill="#C3996B"/>
<path d="M55.1593 51.6403C55.0577 51.6403 54.9561 51.5387 54.9561 51.4371C54.9561 51.3355 55.0577 51.2339 55.1593 51.2339C55.2609 51.2339 55.3625 51.3355 55.3625 51.4371C55.4641 51.5387 55.3625 51.6403 55.1593 51.6403Z" fill="#C3996B"/>
<path d="M53.6354 53.7742C53.4322 53.7742 53.3306 53.6726 53.3306 53.4693C53.3306 53.3677 53.4322 53.1645 53.6354 53.1645C53.737 53.1645 53.9403 53.2661 53.9403 53.4693C53.9403 53.6726 53.8386 53.7742 53.6354 53.7742Z" fill="#C3996B"/>
<path d="M51.9079 55.8064C51.7046 55.8064 51.603 55.7048 51.603 55.5016C51.603 55.2984 51.7046 55.1968 51.9079 55.1968C52.1111 55.1968 52.2127 55.2984 52.2127 55.5016C52.2127 55.7048 52.1111 55.8064 51.9079 55.8064Z" fill="#C3996B"/>
<path d="M49.9772 57.6355C49.774 57.6355 49.5708 57.4323 49.5708 57.229C49.5708 57.0258 49.774 56.8226 49.9772 56.8226C50.1805 56.8226 50.3837 57.0258 50.3837 57.229C50.3837 57.4323 50.1805 57.6355 49.9772 57.6355Z" fill="#C3996B"/>
<path d="M47.945 59.2613C47.7418 59.2613 47.5386 59.0581 47.5386 58.8548C47.5386 58.6516 47.7418 58.4484 47.945 58.4484C48.1482 58.4484 48.3515 58.6516 48.3515 58.8548C48.3515 59.0581 48.1482 59.2613 47.945 59.2613Z" fill="#C3996B"/>
<path d="M45.7097 60.6839C45.5064 60.6839 45.3032 60.4806 45.3032 60.2774C45.3032 60.0742 45.5064 59.871 45.7097 59.871C45.9129 59.871 46.1161 60.0742 46.1161 60.2774C46.1161 60.4806 45.9129 60.6839 45.7097 60.6839Z" fill="#C3996B"/>
<path d="M43.3723 61.8016C43.1691 61.8016 42.8643 61.5984 42.8643 61.3952C42.8643 61.1919 43.0675 60.8871 43.3723 60.8871C43.5755 60.8871 43.7788 61.0903 43.7788 61.3952C43.8804 61.5984 43.6772 61.8016 43.3723 61.8016Z" fill="#C3996B"/>
<path d="M40.9338 62.8177C40.629 62.8177 40.4258 62.6145 40.4258 62.3097C40.4258 62.0048 40.629 61.8016 40.9338 61.8016C41.2387 61.8016 41.4419 62.0048 41.4419 62.3097C41.4419 62.6145 41.2387 62.8177 40.9338 62.8177Z" fill="#C3996B"/>
<path d="M38.3933 63.4274C38.0885 63.4274 37.8853 63.2242 37.8853 62.9193C37.8853 62.6145 38.0885 62.4113 38.3933 62.4113C38.6982 62.4113 38.9014 62.6145 38.9014 62.9193C38.9014 63.2242 38.6982 63.4274 38.3933 63.4274Z" fill="#C3996B"/>
<path d="M35.8533 63.9355C35.6501 63.9355 35.3452 63.7323 35.3452 63.4274C35.3452 63.2242 35.5484 62.9193 35.8533 62.9193C36.1581 62.9193 36.3613 63.1226 36.3613 63.4274C36.2597 63.7323 36.0565 63.9355 35.8533 63.9355Z" fill="#C3996B"/>
<path d="M33.2111 64.0371C33.0079 64.0371 32.8047 63.8339 32.8047 63.6306C32.8047 63.4274 33.0079 63.2242 33.2111 63.2242C33.4144 63.2242 33.6176 63.4274 33.6176 63.6306C33.6176 63.8339 33.516 64.0371 33.2111 64.0371Z" fill="#C3996B"/>
<path d="M30.5691 63.9355C30.3658 63.9355 30.1626 63.7323 30.1626 63.529C30.1626 63.3258 30.3658 63.1226 30.5691 63.1226C30.7723 63.1226 30.9755 63.3258 30.9755 63.529C30.9755 63.7323 30.8739 63.9355 30.5691 63.9355Z" fill="#C3996B"/>
<path d="M28.0285 63.6307C27.8253 63.6307 27.6221 63.4274 27.6221 63.2242C27.6221 63.021 27.8253 62.8177 28.0285 62.8177C28.2318 62.8177 28.435 63.021 28.435 63.2242C28.435 63.4274 28.2318 63.6307 28.0285 63.6307Z" fill="#C3996B"/>
<path d="M25.4884 63.021C25.2852 63.021 25.1836 62.9194 25.1836 62.7161C25.1836 62.5129 25.3868 62.4113 25.4884 62.4113C25.6917 62.4113 25.7933 62.6145 25.7933 62.7161C25.7933 62.9194 25.6917 63.021 25.4884 63.021Z" fill="#C3996B"/>
<path d="M22.9479 62.2081C22.7447 62.2081 22.6431 62.1065 22.6431 61.9032C22.6431 61.7 22.7447 61.5984 22.9479 61.5984C23.1511 61.5984 23.2527 61.7 23.2527 61.9032C23.2527 62.1065 23.1511 62.2081 22.9479 62.2081Z" fill="#C3996B"/>
<path d="M20.611 61.0903C20.5094 61.0903 20.3062 60.9887 20.3062 60.7855C20.3062 60.5823 20.4078 60.4807 20.611 60.4807C20.7126 60.4807 20.9158 60.5823 20.9158 60.7855C20.9158 60.9887 20.7126 61.0903 20.611 61.0903Z" fill="#C3996B"/>
<path d="M18.274 59.7694C18.1724 59.7694 18.0708 59.6677 18.0708 59.5661C18.0708 59.4645 18.1724 59.3629 18.274 59.3629C18.3756 59.3629 18.4772 59.4645 18.4772 59.5661C18.5789 59.6677 18.4772 59.7694 18.274 59.7694Z" fill="#C3996B"/>
<path d="M16.1397 58.2452C16.0381 58.2452 15.9365 58.1436 15.9365 58.0419C15.9365 57.9403 16.0381 57.8387 16.1397 57.8387C16.2414 57.8387 16.343 57.9403 16.343 58.0419C16.343 58.1436 16.2414 58.2452 16.1397 58.2452Z" fill="#C3996B"/>
<path d="M14.1075 56.6193C14.0059 56.6193 13.9043 56.5177 13.9043 56.4161C13.9043 56.3145 14.0059 56.2129 14.1075 56.2129C14.2091 56.2129 14.3108 56.3145 14.3108 56.4161C14.3108 56.5177 14.2091 56.6193 14.1075 56.6193Z" fill="#C3996B"/>
<path d="M12.3805 54.6887C12.2789 54.6887 12.1772 54.5871 12.1772 54.4855C12.1772 54.3839 12.2789 54.2822 12.3805 54.2822C12.4821 54.2822 12.5837 54.3839 12.5837 54.4855C12.5837 54.5871 12.3805 54.6887 12.3805 54.6887Z" fill="#C3996B"/>
<path d="M10.6529 52.6565C10.5513 52.6565 10.4497 52.5548 10.4497 52.4532C10.4497 52.3516 10.5513 52.25 10.6529 52.25C10.7545 52.25 10.8562 52.3516 10.8562 52.4532C10.8562 52.5548 10.7545 52.6565 10.6529 52.6565Z" fill="#C3996B"/>
<path d="M9.23057 50.421C9.12895 50.421 9.02734 50.3193 9.02734 50.2177C9.02734 50.1161 9.12895 50.0145 9.23057 50.0145C9.33218 50.0145 9.4338 50.1161 9.4338 50.2177C9.4338 50.421 9.33218 50.421 9.23057 50.421Z" fill="#C3996B"/>
<path d="M8.01085 48.1855C7.90923 48.1855 7.80762 48.0839 7.80762 47.9823C7.80762 47.8806 7.90923 47.779 8.01085 47.779C8.11246 47.779 8.21407 47.8806 8.21407 47.9823C8.21407 48.0839 8.11246 48.1855 8.01085 48.1855Z" fill="#C3996B"/>
<path d="M7.09629 45.7468C6.99468 45.7468 6.89307 45.6452 6.89307 45.5436C6.89307 45.4419 6.99468 45.3403 7.09629 45.3403C7.1979 45.3403 7.29951 45.4419 7.29951 45.5436C7.1979 45.6452 7.1979 45.7468 7.09629 45.7468Z" fill="#C3996B"/>
<path d="M6.28379 43.3081C6.18218 43.3081 6.08057 43.2064 6.08057 43.1048C6.08057 43.0032 6.18218 42.9016 6.28379 42.9016C6.3854 42.9016 6.48702 43.0032 6.48702 43.1048C6.48702 43.2064 6.3854 43.3081 6.28379 43.3081Z" fill="#C3996B"/>
<path d="M5.77549 40.7677C5.67388 40.7677 5.57227 40.6661 5.57227 40.5645C5.57227 40.4629 5.67388 40.3613 5.77549 40.3613C5.8771 40.3613 5.97872 40.4629 5.97872 40.5645C6.08033 40.6661 5.97871 40.7677 5.77549 40.7677Z" fill="#C3996B"/>
<path d="M5.57242 38.1258C5.47081 38.1258 5.26758 38.0242 5.26758 37.821C5.26758 37.7194 5.36919 37.5161 5.57242 37.5161C5.67403 37.5161 5.87726 37.6177 5.87726 37.821C5.87726 38.0242 5.67403 38.1258 5.57242 38.1258Z" fill="#C3996B"/>
<path d="M5.57242 35.5855C5.36919 35.5855 5.26758 35.4839 5.26758 35.2806C5.26758 35.0774 5.36919 34.9758 5.57242 34.9758C5.77565 34.9758 5.87726 35.0774 5.87726 35.2806C5.87726 35.4839 5.77565 35.5855 5.57242 35.5855Z" fill="#C3996B"/>
<path d="M5.77554 33.0452C5.57231 33.0452 5.4707 32.9436 5.4707 32.7403C5.4707 32.5371 5.57231 32.4355 5.77554 32.4355C5.97876 32.4355 6.08038 32.5371 6.08038 32.7403C6.18199 32.8419 5.97876 33.0452 5.77554 33.0452Z" fill="#C3996B"/>
<path d="M6.2834 30.5048C6.08017 30.5048 5.87695 30.3016 5.87695 30.0984C5.87695 29.8952 6.08017 29.6919 6.2834 29.6919C6.48662 29.6919 6.68985 29.8952 6.68985 30.0984C6.68985 30.3016 6.48662 30.5048 6.2834 30.5048Z" fill="#C3996B"/>
<path d="M7.09639 28.0661C6.89317 28.0661 6.68994 27.8629 6.68994 27.6597C6.68994 27.4564 6.89317 27.2532 7.09639 27.2532C7.29962 27.2532 7.50285 27.4564 7.50285 27.6597C7.50285 27.8629 7.29962 28.0661 7.09639 28.0661Z" fill="#C3996B"/>
<path d="M8.01095 25.6274C7.80772 25.6274 7.60449 25.4242 7.60449 25.221C7.60449 25.0177 7.80772 24.8145 8.01095 24.8145C8.21417 24.8145 8.4174 25.0177 8.4174 25.221C8.51901 25.4242 8.31578 25.6274 8.01095 25.6274Z" fill="#C3996B"/>
<path d="M9.23018 23.2903C9.02696 23.2903 8.82373 23.0871 8.82373 22.8839C8.82373 22.6806 9.02696 22.4774 9.23018 22.4774C9.43341 22.4774 9.63664 22.6806 9.63664 22.8839C9.73825 23.0871 9.53502 23.2903 9.23018 23.2903Z" fill="#C3996B"/>
<path d="M10.6531 21.1564C10.3482 21.1564 10.145 20.9532 10.145 20.6484C10.145 20.3435 10.3482 20.1403 10.6531 20.1403C10.9579 20.1403 11.1611 20.3435 11.1611 20.6484C11.1611 20.9532 10.9579 21.1564 10.6531 21.1564Z" fill="#C3996B"/>
<path d="M12.3801 19.1242C12.0753 19.1242 11.8721 18.921 11.8721 18.6161C11.8721 18.3113 12.0753 18.1081 12.3801 18.1081C12.685 18.1081 12.8882 18.3113 12.8882 18.6161C12.7866 18.921 12.5834 19.1242 12.3801 19.1242Z" fill="#C3996B"/>
<path d="M14.1077 17.2952C13.8028 17.2952 13.5996 17.0919 13.5996 16.7871C13.5996 16.4823 13.8028 16.279 14.1077 16.279C14.4125 16.279 14.6157 16.4823 14.6157 16.7871C14.6157 17.0919 14.4125 17.2952 14.1077 17.2952Z" fill="#C3996B"/>
<path d="M16.1399 15.5677C15.8351 15.5677 15.6318 15.3645 15.6318 15.0597C15.6318 14.7548 15.8351 14.5516 16.1399 14.5516C16.4447 14.5516 16.648 14.7548 16.648 15.0597C16.648 15.3645 16.4447 15.5677 16.1399 15.5677Z" fill="#C3996B"/>
<path d="M18.2737 14.1452C17.9689 14.1452 17.7656 13.9419 17.7656 13.6371C17.7656 13.3323 17.9689 13.129 18.2737 13.129C18.5785 13.129 18.7818 13.3323 18.7818 13.6371C18.7818 13.9419 18.5785 14.1452 18.2737 14.1452Z" fill="#C3996B"/>
<path d="M20.6111 12.9258C20.3063 12.9258 20.103 12.7226 20.103 12.4177C20.103 12.1129 20.3063 11.9097 20.6111 11.9097C20.9159 11.9097 21.1192 12.1129 21.1192 12.4177C21.1192 12.7226 20.9159 12.9258 20.6111 12.9258Z" fill="#C3996B"/>
<path d="M22.948 11.8081C22.6432 11.8081 22.4399 11.6048 22.4399 11.3C22.4399 10.9952 22.6432 10.7919 22.948 10.7919C23.2528 10.7919 23.4561 10.9952 23.4561 11.3C23.5577 11.6048 23.2528 11.8081 22.948 11.8081Z" fill="#C3996B"/>
<path d="M25.4885 11.0968C25.1837 11.0968 24.9805 10.8935 24.9805 10.5887C24.9805 10.2839 25.1837 10.0806 25.4885 10.0806C25.7934 10.0806 25.9966 10.2839 25.9966 10.5887C25.9966 10.8935 25.7934 11.0968 25.4885 11.0968Z" fill="#C3996B"/>
<path d="M28.0286 10.4871C27.7237 10.4871 27.5205 10.2839 27.5205 9.97903C27.5205 9.6742 27.7237 9.47097 28.0286 9.47097C28.3334 9.47097 28.5366 9.6742 28.5366 9.97903C28.5366 10.2839 28.3334 10.4871 28.0286 10.4871Z" fill="#C3996B"/>
<path d="M30.5692 10.1823C30.2643 10.1823 29.9595 9.97903 29.9595 9.57258C29.9595 9.26774 30.1627 9.06451 30.5692 9.06451C30.874 9.06451 31.1788 9.26774 31.1788 9.57258C31.1788 9.97903 30.874 10.1823 30.5692 10.1823Z" fill="#C3996B"/>
<path d="M33.2112 10.0806C32.9064 10.0806 32.7031 9.87742 32.7031 9.57258C32.7031 9.26774 32.9064 9.06451 33.2112 9.06451C33.516 9.06451 33.7193 9.26774 33.7193 9.57258C33.8209 9.87742 33.516 10.0806 33.2112 10.0806Z" fill="#C3996B"/>
<path d="M35.8533 10.2839C35.5484 10.2839 35.3452 10.0806 35.3452 9.7758C35.3452 9.47096 35.5484 9.26773 35.8533 9.26773C36.1581 9.26773 36.3613 9.47096 36.3613 9.7758C36.3613 10.0806 36.1581 10.2839 35.8533 10.2839Z" fill="#C3996B"/>
<path d="M38.3933 10.6903C38.0885 10.6903 37.8853 10.4871 37.8853 10.1823C37.8853 9.87742 38.0885 9.67419 38.3933 9.67419C38.6982 9.67419 38.9014 9.87742 38.9014 10.1823C38.9014 10.4871 38.6982 10.6903 38.3933 10.6903Z" fill="#C3996B"/>
<path d="M40.9338 11.4016C40.629 11.4016 40.4258 11.1984 40.4258 10.8936C40.4258 10.5887 40.629 10.3855 40.9338 10.3855C41.2387 10.3855 41.4419 10.5887 41.4419 10.8936C41.4419 11.1984 41.2387 11.4016 40.9338 11.4016Z" fill="#C3996B"/>
<path d="M43.3723 12.3161C43.0675 12.3161 42.8643 12.1129 42.8643 11.8081C42.8643 11.5032 43.0675 11.3 43.3723 11.3C43.6772 11.3 43.8804 11.5032 43.8804 11.8081C43.8804 12.1129 43.6772 12.3161 43.3723 12.3161Z" fill="#C3996B"/>
<path d="M45.7092 13.4339C45.4044 13.4339 45.2012 13.2306 45.2012 12.9258C45.2012 12.621 45.4044 12.4177 45.7092 12.4177C46.0141 12.4177 46.2173 12.621 46.2173 12.9258C46.2173 13.2306 46.0141 13.4339 45.7092 13.4339Z" fill="#C3996B"/>
<path d="M47.945 14.7548C47.7418 14.7548 47.5386 14.5516 47.5386 14.3484C47.5386 14.1452 47.7418 13.9419 47.945 13.9419C48.1482 13.9419 48.3515 14.1452 48.3515 14.3484C48.3515 14.5516 48.1482 14.7548 47.945 14.7548Z" fill="#C3996B"/>
<path d="M49.9772 16.279C49.774 16.279 49.5708 16.0758 49.5708 15.8726C49.5708 15.6694 49.774 15.4661 49.9772 15.4661C50.1805 15.4661 50.3837 15.6694 50.3837 15.8726C50.3837 16.1774 50.1805 16.279 49.9772 16.279Z" fill="#C3996B"/>
<path d="M51.9079 18.0065C51.7046 18.0065 51.603 17.9048 51.603 17.7016C51.603 17.4984 51.7046 17.3968 51.9079 17.3968C52.1111 17.3968 52.2127 17.4984 52.2127 17.7016C52.2127 17.9048 52.1111 18.0065 51.9079 18.0065Z" fill="#C3996B"/>
<path d="M53.6354 19.9371C53.4322 19.9371 53.3306 19.8355 53.3306 19.6323C53.3306 19.429 53.4322 19.3274 53.6354 19.3274C53.8386 19.3274 53.9403 19.429 53.9403 19.6323C53.9403 19.8355 53.8386 19.9371 53.6354 19.9371Z" fill="#C3996B"/>
<path d="M55.1593 21.9694C55.0577 21.9694 54.9561 21.8677 54.9561 21.7661C54.9561 21.6645 55.0577 21.5629 55.1593 21.5629C55.2609 21.5629 55.3625 21.6645 55.3625 21.7661C55.4641 21.8677 55.3625 21.9694 55.1593 21.9694Z" fill="#C3996B"/>
<path d="M56.4806 24.2048C56.379 24.2048 56.2773 24.1032 56.2773 24.0016C56.2773 23.9 56.379 23.7984 56.4806 23.7984C56.5822 23.7984 56.6838 23.9 56.6838 24.0016C56.6838 24.1032 56.5822 24.2048 56.4806 24.2048Z" fill="#C3996B"/>
<path d="M57.5982 26.5419C57.4966 26.5419 57.4966 26.4403 57.4966 26.4403C57.4966 26.3387 57.5982 26.3387 57.5982 26.3387C57.6998 26.3387 57.6998 26.4403 57.6998 26.4403C57.8014 26.4403 57.6998 26.5419 57.5982 26.5419Z" fill="#C3996B"/>
<path d="M58.5128 28.9806C58.4111 28.9806 58.4111 28.9806 58.4111 28.879C58.4111 28.7774 58.4111 28.7774 58.5128 28.7774C58.6144 28.7774 58.6144 28.7774 58.6144 28.879C58.6144 28.9806 58.5128 28.9806 58.5128 28.9806Z" fill="#C3996B"/>
<path d="M59.1223 31.521C59.0207 31.4194 59.1223 31.4194 59.1223 31.4194C59.1223 31.3177 59.2239 31.3177 59.1223 31.521Z" fill="#C3996B"/>
<path d="M59.5288 34.0613C59.4272 34.0613 59.4272 34.0613 59.5288 34.0613C59.4272 33.9597 59.5288 33.9597 59.5288 33.9597C59.5288 33.9597 59.5288 33.9597 59.5288 34.0613Z" fill="#C3996B"/>
<path d="M32.0934 28.6758V28.1677C27.724 28.371 24.2692 31.8258 23.9644 36.1952H24.4724C24.7773 32.029 28.0289 28.7774 32.0934 28.6758Z" fill="#C3996B"/>
<path d="M32.8047 44.4258V44.9339C37.2757 44.7307 40.8321 41.1742 40.9337 36.7032H40.4257C40.2224 40.8694 36.9708 44.2226 32.8047 44.4258Z" fill="#C3996B"/>
<path d="M40.3241 36.0936H40.8322C40.6289 31.7242 37.0725 28.2694 32.7031 28.0661V28.5742C36.8693 28.7774 40.1209 32.029 40.3241 36.0936Z" fill="#C3996B"/>
<path d="M24.5745 36.8048H24.0664C24.168 41.2758 27.7245 44.8323 32.1954 45.0355V44.5274C28.0293 44.2226 24.6761 40.8694 24.5745 36.8048Z" fill="#C3996B"/>
<path d="M32.5 20.2419L32.2968 20.0387C30.163 17.9049 27.2162 16.6855 24.1678 16.6855H23.5581L23.9646 16.279C26.2001 14.0436 29.2484 12.7226 32.5 12.7226C35.7517 12.7226 38.6984 13.942 41.0355 16.279L41.442 16.6855H40.8323C37.7839 16.6855 34.8371 17.9049 32.7033 20.0387L32.5 20.2419ZM24.7775 16.1774C27.7242 16.279 30.3662 17.4984 32.5 19.5307C34.6339 17.4984 37.2759 16.3807 40.2226 16.1774C38.0888 14.2468 35.3452 13.2307 32.5 13.2307C29.6549 13.2307 26.9113 14.3484 24.7775 16.1774Z" fill="#C3996B"/>
<path d="M52.8226 28.7774L52.4162 28.371C50.2823 26.2371 47.3355 25.0177 44.2871 25.0177H44.0839V24.8145C44.0839 21.7661 42.8646 18.8194 40.7307 16.6855L40.3242 16.279H40.9339C44.1855 16.279 47.1323 17.4984 49.4694 19.8355C51.7049 22.071 53.0258 25.1193 53.0258 28.371V28.7774H52.8226ZM44.4904 24.5097C47.4371 24.6113 50.1807 25.6274 52.3145 27.5581C52.2129 24.7129 50.9936 22.071 48.9613 20.0387C46.9291 18.0064 44.2871 16.7871 41.442 16.6855C43.3726 18.8194 44.3887 21.5629 44.4904 24.5097Z" fill="#C3996B"/>
<path d="M37.3771 27.2532L37.2755 27.1516C36.7674 26.8468 36.2594 26.6436 35.6497 26.4403H35.5481V26.3387C35.1416 23.9 34.0239 21.7661 32.2965 20.0387L32.0933 19.8355L32.2965 19.6323C34.532 17.3968 37.5803 16.0758 40.832 16.0758H40.9336L41.0352 16.1774C43.2707 18.4129 44.5916 21.4613 44.5916 24.7129V24.9161H44.1852C41.7465 24.9161 39.4094 25.6274 37.4787 27.05L37.3771 27.2532ZM35.9545 26.1355C36.4626 26.3387 36.8691 26.4403 37.3771 26.7452C39.3078 25.3226 41.6449 24.6113 43.982 24.6113C43.8804 21.6645 42.7626 18.921 40.7304 16.7871C37.7836 16.7871 35.04 17.9049 32.9062 20.0387C34.4303 21.6645 35.5481 23.7984 35.9545 26.1355Z" fill="#C3996B"/>
<path d="M52.3143 45.4419V44.8323C52.3143 41.7839 51.0949 38.8371 48.961 36.7032L48.7578 36.5L48.961 36.2968C51.0949 34.1629 52.3143 31.2161 52.3143 28.1678V27.5581L52.7207 27.9645C54.9562 30.2 56.2772 33.2484 56.2772 36.5C56.2772 39.7516 55.0578 42.6984 52.7207 45.0355L52.3143 45.4419ZM49.4691 36.5C51.5014 38.6339 52.6191 41.2758 52.8223 44.2226C54.753 42.0887 55.7691 39.3452 55.7691 36.5C55.7691 33.6548 54.753 30.9113 52.8223 28.7774C52.6191 31.7242 51.5014 34.4678 49.4691 36.5Z" fill="#C3996B"/>
<path d="M49.0628 36.9065L48.8595 36.7032C47.1321 34.9758 44.9982 33.8581 42.5595 33.4516H42.4579V33.35C42.2547 32.8419 42.0515 32.3339 41.7466 31.7242L41.645 31.6226L41.7466 31.521C43.1692 29.5903 43.8805 27.2532 43.8805 24.8145V24.6113H44.0837C47.3353 24.6113 50.2821 25.8306 52.6192 28.1677L52.7208 28.2694V28.371C52.7208 31.6226 51.5015 34.5694 49.1644 36.9065H49.0628ZM42.8644 33.0452C45.2015 33.4516 47.3353 34.5694 49.0628 36.1952C51.095 34.0613 52.2128 31.3177 52.3144 28.371C50.1805 26.3387 47.437 25.1194 44.4902 25.1194C44.4902 27.4565 43.6773 29.7935 42.3563 31.7242C42.5595 32.1306 42.7628 32.5371 42.8644 33.0452Z" fill="#C3996B"/>
<path d="M40.8323 56.9242H40.2227L40.6291 56.5178C42.763 54.3839 43.9823 51.4371 43.9823 48.3887V48.0839H44.1856C47.2339 48.0839 50.1807 46.8645 52.3146 44.7307L52.721 44.3242V44.9339C52.721 48.1855 51.5017 51.1323 49.1646 53.4694C47.0307 55.6032 43.9823 56.9242 40.8323 56.9242ZM44.4904 48.592C44.3888 51.5387 43.3727 54.2823 41.442 56.4161C44.2872 56.3145 46.9291 55.0952 48.9614 53.0629C50.9936 51.0307 52.213 48.3887 52.3146 45.5436C50.1807 47.3726 47.4372 48.4903 44.4904 48.592Z" fill="#C3996B"/>
<path d="M44.1853 48.5919H43.9821V48.3887C43.9821 45.95 43.2708 43.6129 41.8482 41.6823L41.7466 41.5806L41.8482 41.479C42.153 40.971 42.3562 40.4629 42.5595 39.8532V39.7516H42.6611C45.0998 39.3452 47.2337 38.2274 48.9611 36.5L49.1643 36.2968L49.3675 36.5C51.603 38.7355 52.924 41.7839 52.924 45.0355V45.1371L52.8224 45.2387C50.4853 47.271 47.4369 48.5919 44.1853 48.5919ZM42.2546 41.3774C43.6772 43.3081 44.3885 45.6452 44.3885 47.9823C47.3353 47.8806 50.0788 46.7629 52.2127 44.7306C52.2127 41.7839 51.095 39.0403 48.9611 36.9065C47.2337 38.5323 45.0998 39.65 42.7627 40.0565C42.7627 40.4629 42.5595 40.971 42.2546 41.3774Z" fill="#C3996B"/>
<path d="M32.5 60.2774C29.2484 60.2774 26.3017 59.0581 23.9646 56.721L23.5581 56.3145H24.1678C27.2162 56.3145 30.163 55.0952 32.2968 52.9613L32.5 52.7581L32.7033 52.9613C34.8371 55.0952 37.7839 56.3145 40.8323 56.3145H41.442L41.0355 56.721C38.6984 59.0581 35.65 60.2774 32.5 60.2774ZM24.7775 56.8226C26.9113 58.7532 29.6549 59.7694 32.5 59.7694C35.3452 59.7694 38.0888 58.7532 40.2226 56.8226C37.2759 56.721 34.6339 55.5016 32.5 53.4694C30.3662 55.5016 27.6226 56.721 24.7775 56.8226Z" fill="#C3996B"/>
<path d="M40.9336 56.9242H40.832C37.5803 56.9242 34.6336 55.7048 32.2965 53.3677L32.0933 53.1645L32.2965 52.9613C34.0239 51.2339 35.1416 49.1 35.5481 46.6613V46.5597H35.6497C36.1578 46.3565 36.6658 46.1532 37.2755 45.8484L37.3771 45.7468L37.4787 45.8484C39.4094 47.271 41.7465 47.9823 44.1852 47.9823H44.3884V48.1855C44.49 51.5387 43.2707 54.4855 40.9336 56.9242ZM32.8045 53.1645C34.9384 55.1968 37.682 56.3145 40.6287 56.4161C42.661 54.2823 43.8803 51.5387 43.8803 48.5919C41.5433 48.5919 39.2062 47.779 37.2755 46.4581C36.7674 46.6613 36.361 46.8645 35.8529 47.0677C35.5481 49.3032 34.4304 51.4371 32.8045 53.1645Z" fill="#C3996B"/>
<path d="M24.7773 56.9242H24.1676C20.916 56.9242 17.9692 55.7048 15.6321 53.3677C13.3966 51.1323 12.0757 48.0839 12.0757 44.8323V44.2226L12.4821 44.629C14.616 46.7629 17.5628 47.9823 20.6112 47.9823H20.8144V48.1855C20.8144 51.2339 22.0337 54.1806 24.1676 56.3145L24.7773 56.9242ZM12.6854 45.4419C12.787 48.2871 14.0063 50.929 16.0386 52.9613C18.0708 54.9935 20.7128 56.2129 23.5579 56.3145C21.6273 54.1806 20.5095 51.4371 20.5095 48.4903C17.5628 48.4903 14.8192 47.3726 12.6854 45.4419Z" fill="#C3996B"/>
<path d="M24.1679 56.9242H24.0663L23.9647 56.8226C21.7292 54.5871 20.4082 51.5387 20.4082 48.2871V48.0839H20.6114C23.0501 48.0839 25.3872 47.3726 27.3179 45.95L27.4195 45.8484L27.5211 45.95C28.0292 46.2549 28.5372 46.4581 29.1469 46.6613H29.2485V46.7629C29.655 49.2016 30.7727 51.3355 32.5001 53.0629L32.7034 53.2661L32.5001 53.4694C30.3663 55.6032 27.3179 56.9242 24.1679 56.9242ZM20.9163 48.592C21.0179 51.5387 22.1356 54.2823 24.1679 56.4161C27.1147 56.4161 29.8582 55.2984 31.9921 53.2661C30.3663 51.5387 29.2485 49.4049 28.8421 47.0678C28.334 46.8645 27.9276 46.7629 27.4195 46.4581C25.5905 47.7791 23.355 48.4903 20.9163 48.592Z" fill="#C3996B"/>
<path d="M12.584 45.4419L12.1775 45.0355C9.94206 42.8 8.62109 39.7516 8.62109 36.5C8.62109 33.2484 9.84045 30.3016 12.1775 27.9645L12.584 27.5581V28.1678C12.584 31.2161 13.8033 34.1629 15.9372 36.2968L16.1404 36.5L15.9372 36.7032C13.8033 38.8371 12.584 41.7839 12.584 44.8323V45.4419ZM12.1775 28.7774C10.2469 30.9113 9.23077 33.6548 9.23077 36.5C9.23077 39.3452 10.2469 42.0887 12.1775 44.2226C12.2792 41.2758 13.4985 38.6339 15.5308 36.5C13.4985 34.4678 12.2792 31.7242 12.1775 28.7774Z" fill="#C3996B"/>
<path d="M20.916 48.5919H20.7128C17.4612 48.5919 14.5144 47.3726 12.1773 45.0355L12.0757 44.9339V44.8323C12.0757 41.5806 13.295 38.6339 15.6321 36.2968L15.8354 36.0936L16.0386 36.2968C17.766 38.0242 19.8999 39.1419 22.3386 39.5484H22.4402V39.65C22.6434 40.1581 22.8467 40.6661 23.1515 41.2758L23.2531 41.3774L23.1515 41.479C21.7289 43.4097 21.0176 45.7468 21.0176 48.1855V48.5919H20.916ZM12.5837 44.7306C14.7176 46.7629 17.4612 47.9823 20.4079 47.9823C20.5096 45.6452 21.2208 43.3081 22.5418 41.3774C22.3386 40.8694 22.1354 40.4629 21.9321 39.9548C19.595 39.5484 17.4612 38.4306 15.7337 36.8048C13.8031 39.0403 12.6854 41.7839 12.5837 44.7306Z" fill="#C3996B"/>
<path d="M12.0757 28.7774V28.1678C12.0757 24.9161 13.295 21.9694 15.6321 19.6323C17.8676 17.3968 20.916 16.0758 24.1676 16.0758H24.7773L24.3708 16.4823C22.237 18.6161 21.0176 21.5629 21.0176 24.6113V24.8145H20.8144C17.766 24.8145 14.8192 26.0339 12.6854 28.1678L12.0757 28.7774ZM23.5579 16.6855C20.7128 16.7871 18.0708 18.0065 16.0386 20.0387C14.0063 22.071 12.787 24.7129 12.6854 27.5581C14.8192 25.6274 17.5628 24.5097 20.5095 24.5097C20.5095 21.5629 21.6273 18.8194 23.5579 16.6855Z" fill="#C3996B"/>
<path d="M27.5211 27.2532L27.4194 27.1516C25.4888 25.729 23.1517 25.0177 20.713 25.0177H20.5098V24.8145C20.5098 21.5629 21.7291 18.6161 24.0662 16.279L24.1678 16.1774H24.2694C27.5211 16.1774 30.4678 17.3968 32.8049 19.7339L33.0082 19.9371L32.8049 20.1403C31.0775 21.8677 29.9598 24.0016 29.5533 26.4403V26.5419H29.4517C28.9436 26.7452 28.4356 26.9484 27.8259 27.2532H27.5211ZM20.9162 24.5097C23.2533 24.5097 25.5904 25.3226 27.5211 26.6435C28.0291 26.4403 28.4356 26.2371 28.9436 26.0339C29.3501 23.6968 30.4678 21.5629 32.0936 19.8355C29.9598 17.8032 27.2162 16.6855 24.2694 16.6855C22.1356 18.8193 21.0178 21.5629 20.9162 24.5097Z" fill="#C3996B"/>
<path d="M42.3564 40.1581L42.4581 39.7516C42.7629 38.7355 42.9661 37.6178 42.9661 36.5C42.9661 35.3823 42.7629 34.3661 42.4581 33.2484L42.3564 32.8419L42.7629 32.9436C45.3032 33.35 47.5387 34.4678 49.2661 36.2968L49.4693 36.5L49.2661 36.7032C47.4371 38.5323 45.2016 39.65 42.7629 40.0565L42.3564 40.1581ZM43.0677 33.5532C43.3726 34.5694 43.4742 35.4839 43.4742 36.5C43.4742 37.5161 43.3726 38.5323 43.0677 39.4468C45.2016 39.0403 47.2339 38.0242 48.7581 36.5C47.1323 34.9758 45.2016 33.9597 43.0677 33.5532Z" fill="#C3996B"/>
<path d="M32.4999 53.571L32.2966 53.3677C30.4676 51.5387 29.3499 49.3032 28.9434 46.8645L28.8418 46.4581L29.2483 46.5597C31.2805 47.271 33.6176 47.271 35.6499 46.5597L36.0563 46.4581L35.9547 46.8645C35.5482 49.4048 34.4305 51.6403 32.6015 53.3677L32.4999 53.571ZM29.4515 47.1694C29.8579 49.3032 30.8741 51.3355 32.3982 52.8597C33.9224 51.2339 34.9386 49.3032 35.345 47.1694C33.516 47.6774 31.3821 47.6774 29.4515 47.1694Z" fill="#C3996B"/>
<path d="M20.713 48.5919H20.5098V48.3887C20.5098 45.8484 21.3227 43.4097 22.7452 41.3774L22.9485 41.0726L23.1517 41.479C24.1678 43.4097 25.692 45.0355 27.7243 46.0516L28.1307 46.2548L27.8259 46.4581C25.5904 47.779 23.2533 48.5919 20.713 48.5919ZM22.8469 41.8855C21.6275 43.7145 20.9162 45.8484 20.9162 47.9823C23.1517 47.9823 25.184 47.271 27.013 46.0516C25.2856 45.1371 23.863 43.7145 22.8469 41.8855Z" fill="#C3996B"/>
<path d="M36.0563 26.6436L35.6499 26.5419C33.6176 25.8307 31.2805 25.8307 29.2483 26.5419L28.8418 26.6436L28.9434 26.2371C29.3499 23.6968 30.4676 21.4613 32.2966 19.7339L32.4999 19.5307L32.7031 19.7339C34.5321 21.5629 35.6499 23.7984 36.0563 26.2371V26.6436ZM32.4999 20.2419C30.9757 21.8678 29.9596 23.7984 29.5531 25.9323C31.4837 25.4242 33.516 25.4242 35.4466 25.9323C35.0402 23.7984 34.0241 21.8678 32.4999 20.2419Z" fill="#C3996B"/>
<path d="M22.9485 32.1306L22.7452 31.8258C21.2211 29.7935 20.5098 27.3548 20.5098 24.8145V24.6113H20.713C23.2533 24.6113 25.692 25.4242 27.7243 26.8468L28.0291 27.05L27.6227 27.2532C25.692 28.2694 24.0662 29.7935 23.0501 31.8258L22.9485 32.1306ZM20.9162 25.0177C20.9162 27.2532 21.6275 29.2855 22.8469 31.1145C23.863 29.3871 25.2856 27.8629 27.013 26.9484C25.2856 25.729 23.1517 25.1194 20.9162 25.0177Z" fill="#C3996B"/>
<path d="M22.6437 40.1581L22.2372 40.0565C19.6969 39.65 17.4614 38.5323 15.734 36.7032L15.5308 36.5L15.734 36.2968C17.563 34.4678 19.7985 33.35 22.2372 32.9436L22.6437 32.8419L22.542 33.2484C22.2372 34.2645 22.034 35.3823 22.034 36.5C22.034 37.6178 22.2372 38.6339 22.542 39.7516L22.6437 40.1581ZM16.1404 36.5C17.7662 38.0242 19.6969 39.0403 21.8308 39.4468C21.5259 38.4307 21.4243 37.5161 21.4243 36.5C21.4243 35.4839 21.5259 34.4678 21.8308 33.5532C19.6969 33.9597 17.7662 34.9758 16.1404 36.5Z" fill="#C3996B"/>
<path d="M32.5001 47.5758C26.4033 47.5758 21.5259 42.5968 21.5259 36.6016C21.5259 30.5048 26.5049 25.6274 32.5001 25.6274C38.5968 25.6274 43.4743 30.6065 43.4743 36.6016C43.4743 42.5968 38.4952 47.5758 32.5001 47.5758ZM32.5001 26.0339C26.7081 26.0339 22.0339 30.7081 22.0339 36.5C22.0339 42.2919 26.7081 46.9661 32.5001 46.9661C38.292 46.9661 42.9662 42.2919 42.9662 36.5C42.9662 30.7081 38.292 26.0339 32.5001 26.0339Z" fill="#C3996B"/>
<path d="M98.9 27.9H88.4L86.1 32.9H84L92.6 14.1H94.6L103.2 32.9H101.1L98.9 27.9ZM98.2 26.3L93.7 16.2L89.2 26.3H98.2Z" fill="#C3996B"/>
<path d="M124.5 32.9L120.2 26.9C119.7 27 119.2 27 118.7 27H113.7V33H111.7V14.1H118.7C123.5 14.1 126.4 16.5 126.4 20.5C126.4 23.4 124.8 25.5 122.1 26.4L126.7 32.8H124.5V32.9ZM124.4 20.6C124.4 17.6 122.4 15.9 118.7 15.9H113.7V25.3H118.7C122.4 25.3 124.4 23.5 124.4 20.6Z" fill="#C3996B"/>
<path d="M138.5 14.1H136.5V32.9H138.5V14.1Z" fill="#C3996B"/>
<path d="M163.5 31.2V32.9H148.1V31.5L160.5 15.9H148.2V14.1H163.1V15.5L150.7 31.2H163.5Z" fill="#C3996B"/>
<path d="M198.3 23.5H200.2V30.7C198.4 32.3 195.9 33.1 193.3 33.1C187.6 33.1 183.4 29.1 183.4 23.6C183.4 18.1 187.6 14.1 193.3 14.1C196.1 14.1 198.6 15 200.3 16.8L199.1 18.1C197.5 16.5 195.6 15.9 193.4 15.9C188.8 15.9 185.4 19.2 185.4 23.7C185.4 28.2 188.8 31.5 193.4 31.5C195.2 31.5 196.9 31.1 198.3 30.1V23.5Z" fill="#C3996B"/>
<path d="M211.2 14.1H213.2V31.2H223.7V32.9H211.2V14.1Z" fill="#C3996B"/>
<path d="M230.3 23.5C230.3 18 234.5 14 240.2 14C245.8 14 250 18 250 23.5C250 29 245.8 33 240.2 33C234.5 33.1 230.3 29 230.3 23.5ZM248 23.5C248 19 244.6 15.7 240.1 15.7C235.6 15.7 232.2 19 232.2 23.5C232.2 28 235.6 31.3 240.1 31.3C244.7 31.3 248 28 248 23.5Z" fill="#C3996B"/>
<path d="M275.5 27.9C275.5 31.1 273.1 32.9 268.4 32.9H259.8V14.1H267.9C272.1 14.1 274.5 15.9 274.5 18.9C274.5 21 273.3 22.5 271.6 23.2C274 23.8 275.5 25.3 275.5 27.9ZM261.8 15.8V22.6H267.8C270.8 22.6 272.5 21.4 272.5 19.2C272.5 16.9 270.8 15.8 267.8 15.8H261.8ZM273.5 27.7C273.5 25.3 271.7 24.2 268.4 24.2H261.8V31.3H268.4C271.7 31.3 273.5 30.2 273.5 27.7Z" fill="#C3996B"/>
<path d="M297.1 27.9H286.6L284.3 32.9H282.2L290.8 14.1H292.8L301.4 32.9H299.3L297.1 27.9ZM296.4 26.3L291.9 16.2L287.4 26.3H296.4Z" fill="#C3996B"/>
<path d="M309.9 14.1H311.9V31.2H322.4V32.9H309.9V14.1Z" fill="#C3996B"/>
</svg>
